<?xml version="1.0" encoding="UTF-8" standalone="no"?>
<!DOCTYPE svg PUBLIC "-//W3C//DTD SVG 1.1//EN"
	"http://www.w3.org/Graphics/SVG/1.1/DTD/svg11.dtd">
<svg viewBox="0 0 1280 600"
	preserveAspectRatio="xMinYMin"
	xmlns="http://www.w3.org/2000/svg"
	version="1.1"
	xmlns:xlink="http://www.w3.org/1999/xlink">

<style type="text/css">
<![CDATA[
line {
	stroke-width: 3px;
	stroke: black;
}
text {
	font-family: sans;
	font-size: 28px;
	text-anchor: start;
}
text.k {
	font-size: 20px;
}
text.c {
	font-size: 14px;
}
]]>
</style>

<text x="10" y="40" style="fill: #181866; font-weight: bold;">X</text>
<text x="32" y="40" style="fill: #184444; font-weight: bold;">Cairo</text>
<text x="114" y="40" style="fill: #186018; font-weight: bold;">Fex</text>
<text x="180" y="40" style="font-size: 24">
a graphical frontend for the Fex frequency excursion calculator</text>
<line x1="10" y1="50" x2="1270" y2="50"/>

<text class="k" style="font-weight: bold;" x="40" y="100">KEY</text>
<text class="k" style="font-weight: bold;" x="380" y="100">ACTION</text>
<text class="k" x="40" y="126">Up-Arrow</text>
<text class="k" x="380" y="126">Increase sensitivity and recalculate peaks</text>
<text class="k" x="40" y="152">Down-Arrow</text>
<text class="k" x="380" y="152">Decrease sensitivity and recalculate peaks</text>
<text class="k" x="40" y="178">e</text>
<text class="k" x="380" y="178">Eraser tool toggle on/off</text>
<text class="k" x="40" y="204">z</text>
<text class="k" x="380" y="204">Zoom tool toggle on/off</text>
<text class="k" x="40" y="230">h</text>
<text class="k" x="380" y="230">Show this help menu</text>

<text class="k" x="40" y="256">Shift+Up-Arrow</text>
<text class="k" x="380" y="256">Increase eraser size</text>
<text class="k" x="40" y="282">Shift+Down-Arrow</text>
<text class="k" x="380" y="282">Decrease eraser size</text>
<text class="k" x="40" y="308">Shift+Right-Arrow</text>
<text class="k" x="380" y="308">Increase eraser aspect ratio</text>
<text class="k" x="40" y="334">Shift+Left-Arrow</text>
<text class="k" x="380" y="334">Decrease eraser aspect ratio</text>

<text class="k" x="40" y="360">Control+q</text>
<text class="k" x="380" y="360">Quit</text>
<text class="k" x="40" y="386">Control+r</text>
<text class="k" x="380" y="386">Restart discarding changes; recalculate dft</text>

<text x="40" y="580" style="fill: #800; font-size: 24px">
Press any key to exit help menu</text>

<text class="c" x="940" y="575">XCairoFex and Fex are copyright © 2013</text>

<text class="c" x="940" y="590">Jesse McClure www.mccluresk9.com</text>

</svg>

