/* XPM */
char *icon[] = {
/* columns rows colors chars-per-pixel */
"64 64 191 2 ",
"   c #010001",
".  c #000E0F",
"X  c #060904",
"o  c #01071D",
"O  c #1B0018",
"+  c #001412",
"@  c #310400",
"#  c #3B0016",
"$  c #15002D",
"%  c #120023",
"&  c #05063B",
"*  c #160039",
"=  c #001236",
"-  c #000C25",
";  c #29003A",
":  c #290039",
">  c #3C003D",
",  c #32003B",
"<  c #2D0028",
"1  c #002827",
"2  c #003E2E",
"3  c #002A37",
"4  c #003D32",
"5  c #5A0000",
"6  c #46001E",
"7  c #5E001C",
"8  c #450008",
"9  c #6D0000",
"0  c #7B0000",
"q  c #70001B",
"w  c #660016",
"e  c #42002D",
"r  c #470022",
"t  c #55002C",
"y  c #5A0028",
"u  c #470037",
"i  c #4B003B",
"p  c #4B0034",
"a  c #560039",
"s  c #510036",
"d  c #67002A",
"f  c #73002D",
"g  c #750025",
"h  c #6A0031",
"j  c #630031",
"k  c #720033",
"l  c #004134",
"z  c #004B3A",
"x  c #004637",
"c  c #010042",
"v  c #110043",
"b  c #13004A",
"n  c #1C004A",
"m  c #00124A",
"M  c #0C0051",
"N  c #000B5E",
"B  c #050458",
"V  c #170055",
"C  c #001A5E",
"Z  c #00145A",
"A  c #250046",
"S  c #24004D",
"D  c #2B0048",
"F  c #3B0044",
"G  c #350044",
"H  c #00334C",
"J  c #002954",
"K  c #003E54",
"L  c #00325A",
"P  c #002A48",
"I  c #001364",
"U  c #001C6B",
"Y  c #001A65",
"T  c #001E73",
"R  c #001E7A",
"E  c #000C64",
"W  c #00286A",
"Q  c #003369",
"!  c #003D6C",
"~  c #003B63",
"^  c #002476",
"/  c #00267D",
"(  c #002D7E",
")  c #002C75",
"_  c #003376",
"`  c #00317C",
"'  c #003A79",
"]  c #460041",
"[  c #004C42",
"{  c #004547",
"}  c #005343",
"|  c #005945",
" . c #005E4B",
".. c #004B58",
"X. c #005954",
"o. c #00525E",
"O. c #00624E",
"+. c #00694C",
"@. c #00724C",
"#. c #006651",
"$. c #006C55",
"%. c #006B5B",
"&. c #00625C",
"*. c #007257",
"=. c #00745C",
"-. c #007A5E",
";. c #007856",
":. c #004963",
">. c #004569",
",. c #005E63",
"<. c #00546C",
"1. c #005D6C",
"2. c #005361",
"3. c #004474",
"4. c #004B74",
"5. c #004279",
"6. c #004D79",
"7. c #005472",
"8. c #005579",
"9. c #005C73",
"0. c #006B66",
"q. c #00646B",
"w. c #006C6D",
"e. c #006362",
"r. c #007561",
"t. c #007C63",
"y. c #00746C",
"u. c #007C6A",
"i. c #006576",
"p. c #006C76",
"a. c #007372",
"s. c #007C73",
"d. c #00747C",
"f. c #007D7B",
"g. c #850000",
"h. c #940000",
"j. c #9D0000",
"k. c #8A0012",
"l. c #850019",
"z. c #92001A",
"x. c #A30000",
"c. c #A50800",
"v. c #B60002",
"b. c #BA0000",
"n. c #B9000E",
"m. c #BC0E00",
"M. c #A30011",
"N. c #A80019",
"B. c #B50018",
"V. c #820024",
"C. c #8C0029",
"Z. c #8E0024",
"A. c #930024",
"S. c #9F0029",
"D. c #970027",
"F. c #A40023",
"G. c #C40000",
"H. c #CA000E",
"J. c #D00000",
"K. c #DB0000",
"L. c #D6000D",
"P. c #C50012",
"I. c #CA0012",
"U. c #E30000",
"Y. c #E50009",
"T. c #EC0000",
"R. c #00825E",
"E. c #008265",
"W. c #008C65",
"Q. c #00856A",
"!. c #008A6D",
"~. c #00926C",
"^. c #00946A",
"/. c #008476",
"(. c #008D71",
"). c #00847C",
"_. c #009274",
"`. c #009578",
"'. c #00997A",
"]. c #009872",
"[. c #002F87",
"{. c #003582",
"}. c #003A82",
"|. c #003589",
" X c #004383",
".X c #004885",
"XX c #005885",
"oX c #006983",
"OX c #007D83",
"+X c #008187",
"@X c None",
/* pixels */
"@X@X@X@X@X@X@X@X@X@X@X@X@X@X@X@X@X@X@X@X@X@X@X@X@X@X@X@X@X@X@X@X@X@X@X@X@X@X@X@X@X@X@X@X@X@X@XO.@X@X@X@X@X@X@X@X@X@X@X@X@X@X@X@X",
"@X@X@X@X@X@X@X@X@X@X@X@X@X@X@X@X@X@X@X@X@X@X@X@X@X@X@X@X@X@X@X@X@X@X@X@X@X@X@X@X@X@X@X@X@X@X2.e.@X@X@X@X@X@X@X@X@X@X@X@X@X@X@X@X",
"@X@X@X@X@X@X@X@X@X@X@X@X@X@X@X@X@X@X@X@X@X@X@X@X@X@X@X@X@X@X@X@X@X@X@X@X@X@X@X@X@X@X@X@X@X@XQ <.-.@X@X@X@X@X@X@X@X@X@X@X@X@X@X@X",
"@X@X@X@X@X@X@X@X@X@X@X@X@X@X@X@X@X@X@X@X@X@X@X@X@X@X@X@X@X@X@X@X@X@X@X@X@X@X@X@X@X@X@X@X@X@X$ . !.@X@X@X@X@X@X@X@X@X@X@X@X@X@X@X",
"@X@X@X@X@X@X@X@X@X@X@X@X@X@X@X@X@X@X@X@X@X@X@X@X@X@X@X@X@X@X@X@X@X@X@X@X@X@X@X@X@X@X@X@X@X@Xt S !.@X@X@X@X@X@X@X@X@X@X@X@X@X@X@X",
"@X@X@X@X@X@X@X@X@X@X@X@X@X@X@X@X@X@X@X@X@X@X@X@X@X .@X@X@X@X@X@X@X@X@X@X@X@X@X@X@X@X@X@X@X@Xe D Q.-.@X@X@X%.@X@X@X@X@X@X@X@X@X@X",
"@X@X@X@X@X@X@X@X@X@X@X@X@X@X@X@X@X@X@X@X@X@X@X@XK <.Q.r.@X@X@X@X@X@X@X@X@X@X@X@X@X@X@X@X@X@Xt z.i.~.$.Q.@X`.@X@X@X@X@X@X@X@X@X@X",
"@X@X@X@X@X@X@X@X@X@X@X@X@X@X@X@X@X@X@X@X@X@X@X@X` }.-.t.@X@X@X@X@X@X@X@X@X@X@X@X@X@X@X@X@X@Xb & ' !.t.=.@XQ.@X@X@X@X@X@X@X@X@X@X",
"@X@X@XE.@X@X@X@X@X@X@X@X@X@X@X@X@X@X@X@X@X@X@X@X< V.-.(.@X@XQ.@X@X@X@X@X@X@X@X@X@X@X@X@X@X@X; _ w E.!.@X#.$.@X@X@X@X@X@X@X@X@X@X",
"@X@XC ( @X@X@X@X@X@X@X@X@X@X@X@X@X@X@X@X@X@X@X@Xa N.` ~.#.@X!.@X@X@X@X@X@X@X@X@X@X@X@X@X@X@X# r.D.4.(.| t.#.@X@X@X@X@X@X@X@X@X@X",
"@X@XU ^ O.@X@X@X@X@X@X@X@X@X@X@X@X@X@X@X@X@X@X@XG U ^ !.-.@X!.@X@X@X@X@X@X@X@X@X@X@X@X@X@X@Xe *.N 3.!.-.!.r.$.@X@X@X@X@X@X@X@X@X",
"@X@Xj I.y.!.@X@X@X@X@X@X@X@X@X@X@X@X@X@X@X@X@X@Xd J I.i.Q.@X!.@X@X@X@X@X@X@X@X@X@X@X@X@X@X@X@XE.$ 6 E._.'._._.@X@X@X@X@X@X@X@X@X",
"@X@Xu A.9.Q.@X@X@X@X@X@X@X@X@X@X@X@X@X@X@X@X@X@XO %.f [.E.Q.(.r.@X@X@X@X@X@X@X@X@X@X@X@X@X@X@XO.{ i E._.`.Q.`.-.@X@X@X@X@X@X@X@X",
"@X@X@XI L Q._.@X@X@X@X@X@X@X@X@X@X@X@X@X@X@X@X@XQ s.T f t.!.(.Q.@X@X@X@X@X@X@X@X@X@X@X@X@X@X@X@Xi.A E.!._.t._.E.@X@X@X@X@X@X@X@X",
"@X@X@X7.; y.'.@X@X@X@X@X@X@X@X@X@X@X@X@X@X@X@X@Xr.(.0.Y.r._.`.!.E.@X@X@X@X@X@X@X@X@X@X@X@XU.@X@XQ.# ' (.!.@X!.!.@X@X@X@X@X@X@X@X",
"@X@X@X<.f w.`.O.@X@X@X@X@X@X@X@X@X@X@X@X@X@X@Xv.@X#.u.b ;.!.!.!.E.@X@X@X@X@X@X@X@X@X@X@X@XJ.@X@X=.P }.Q.!.*.r.!.@X@X@X@X@X@X@X@X",
"@X@X@X=.A.3 _.r.@X@X@X@X@X@X@X@X@X@X@X@X@X@X@X@X@X@X(.` o.!.!.Q.Q.@X@X@X@X@X@X@X@X@X@X@X@X@X@X@X@X..n.u.(.$. .Q.@X@X@X@X@X@X@X@X",
"@X@X@X-.a B Q.Q.@X@X@X@X@X@X@X@X@X@X@X@X@X@X@X@X@X@XE.q./ E.!.t.-.@X@X@X@X@X@X@X@X@X@X@X@X@X@X@X@X0.S.R.(.;.} (.@X@X@X@X@X@X@X@X",
"@X@X@XE.` F t.!.@X@X@X@X@X@X@X@X@X@X@X@X@X@X@X@X@X@X@XE.> t.u.=.#.@X@X@X@X@X@X@X@X@X@X@X@X@X@X@X@XX.^ R.Q.r.@X_.@X@X@X@X@X@X@X@X",
"@X@X@Xt.w.n.,.(.$.#.@X@X@X@X@X@X@X@X@X@X@X@X@X@X@X@X@XQ.L.q.t.$.@X@X@X@X@X@X@X@X@X@X@X@X@X@X@X@X@X} H .Xt.Q.@X`.=.@X@X@X@X@X@X@X",
"@X@X@X@XQ.c ..(.t.$.@X@X@X@X@X@X@X@X@X@X@X@X@X@X@X@X@XO.b :.E.$.=.@X$.@X@X@X@X@X@X@X@X@X@X@X@X@X@X@XX.}.t.!.$.E.E.@X@X@X@X@X@X@X",
"@X@X@X@Xt..X1 !.!.=.@X@X@X@X@X@X@X@X@X@X@X@XK.@X@X@X@X@X` o Q.%._.@XQ.@X@X@X@X@X@X@X@X@XT.@X@X@X@X@Xr.Z.r.!.!.@X_.@X@X@X@X@X@X@X",
"@X@X@X@X=.Q.V ~._.=.@X@X@X@X@X@X@X@X@X@X@X@X@X@X@X@X@X@Xt.F y.r.`.@X(.@X@X@X@X@X@X@X@X@XG.@X@X@X@X@XQ.F.r.(._.@X`.@X@X@X@X@X@X@X",
"@X@X@X@X@XW.S ]._.$.@X@X@X@X@X@X@X@X@X@X@X@X@X@X@X@X@X@XE.n 0.u.!.E.E.@X@X@X@X@X@X@X@X@X@X@X@X@X@X@XQ.F =.!._.#._.@X@X@X@X@X@X@X",
"@X@X@X@X@XR.C.'._.O.@X@XO.@X@X@X@X@X@X@X@X@X@X@X@X@X@X@X!.l.l (.Q.`.@Xt.@X@X@X@X@X@X@X@X@X@X@X@X@X@XQ.& ! !.(.=._.@X@X@X@X@X@X@X",
"@X@X@X@X@X| u f.(.O.} @X=.@X@X@X@X@X@X@X@X@X@X@X@X@X@X@X%.= 4 Q.!.!.t.E.@X@X@X@X@X@X@X@X@X@X@X@X@X@X@X../ t._.=.(.@XE.@X@X@X@X@X",
"@X@X@X@X@X@X* y.(.O.E.@Xt.E.@X@X@X@X@X@X@X@X@X@X@X@X@X@X@X5.~ E._.E.(.t.@X@X@X@X@X@X@X@X@X@X@X@X@X@X@Xq.N.t._.=.(.@XE.@X@X@X@X@X",
"@X@X@X@X@X@X[ Z ~.#.'.@XQ.!.@X@X@X@X@X@X@Xx.@X@X@X@X@X@X@XE.Y W._.=._.t.@X@X@X@X@X@X@X@X@X@X@X@X@X@X@Xu.I.! _.=.(.@XE.@X@X@X@X@X",
"@X@X@X@X@X@Xw.V ^.$.`.@XE.$.@X@X@X@X@X@X@XG.@X@X@X@X@X@X@XQ.: Q.Q.E.!.!.@X@X@X@X@X@X@Xv.@X@X@X@X@X@X@Xt.^ Q W.E.~.O.t.@X@X@X@X@X",
"@X@X@X@X@X@X+XF./.r.'.@XE.@X#.@X@X@X@X@X@Xb.@X@X@X@X@X@X@X!.M.s.=.(.t.(.@Xt.@X@X@X@X@XT.@X@X@X@X@X@X@Xr.5.y Q.!._.$.E.@X@X@X@X@X",
"@X@X@X@X@X@XW.D.XXr.`.t.E.@Xr.@X@X@X@X@X@X@X@X@X@X@X@X@X@X*.7 7.=.(.@Xt.@X!.@X@X@X@X@Xb.@X@X@X@X@X@X@X@XE.k y.(.!. . .@X@X@X@X@X",
"@X@X@X@X@X@X@Xn $ t._.!.t.@XQ.@X@X@X@X@X@X@X@X@X@X@X@X@X@X@X' o =.(.@X#.@X_.@X@X@X@X@X@X@X@X@X@X@X@X@X@XW.h w.!.E.@X@X@X@X@X@X@X",
"@X@X@X@X@X@X@XL V.q.!._.E.@XQ.@X@X@X@X@X@X@X@X@X@X@X@X@X@X@Xy.p :.(.@X@XE._.E.@X@X@X@X@X@X@X@X@X@X@X@X@XE.< Z !.-.@X@X@X@X@X@X@X",
"@X@X@X@X@X@X@Xi.] 9.Q._.Q.$.t.@X@X@X@X@X@X@X@X@X@X@X@X@X@X@XQ.S 4.(.@X=.!._.E.@X@X@X@X@X@X@X@X@X@X@X@X@Xt.3.M !.-.| @X@X@X@X@X@X",
"@X@X@X@X@X@X@Xy.s L y.!.Q.Q.O.@X@X@X@X@XU.@X@X@X@X@X@X@X@X@XE.h O !.!.(._.(.Q.@X@X@X@X@X@X@X@X@X@X@X@X@X=.oXD.(.=.#.@X@X@X@X@X@X",
"@X@X@X@X@X@X@X-.O A ( !.Q.(.| @X@X@X@X@XU.@X@X@X@X@X@X@X@X@XE.r i E._._.Q.(.Q.@X@X@Xb.@X@X@X@X@X@X@X@X@X@XQ.B.d.%.-.@X@X@X@X@X@X",
"@X@X@X@X@X@X@X@XXXB., E.!.!.| @X@X@X@X@X@X@X@X@X@X@X@X@X@X@Xt.6.F Q.!.!.| !.Q.@X@X@Xb.@X@X@X@X@X@X@X@X@X@X@.G o.=.E.@X@X@X@X@X@X",
"@X@X@X@X@X@X@X@X).D.P.e._.Q.|   @X@X@X@X@X@X@X@X@X@X@X@X@X@X@Xa.q 8.Q.Q.@XQ.Q.@X@X@Xh.@X@X@X@X@X@X@X@X@X@X@X>.% t.!.@X@X@X@X@X@X",
"@X@X@X@X@X@X@X@XR.V > ' !.Q. .  @X@X@X@X@X@X@X@X@X@X@X@X@X@X@X+.= ' E.!.@X!.#.@X@X@X9 @X@X@X@X@X@X@X@X@X@X@Xd.v R.!.@X@X@X@X@X@X",
"@X@X@X@X@X@X@X@X@X` N : E.t.O.  @X@X@X@X@X@X@X@X@X@X@X@X@X@X@X@X8.k.t._.@XQ.@X@X@X@X@X@X@X@X@X@X@X@X@X@X@X@Xd.h Q._.=.@X@X@X@X@X",
"@X@X@X@X@X@X@X@X@Xr.X.j r.E.*.    @X@X0 @X@X@X@X@X@X@X@X@X@X@X@X`.S.W._.@XQ.@X@X@X9 @X@X@X@X@X@X@X@X@X@X@X@X!.d p.!.Q.@X@X@X@X@X",
"@X@X@X@X@X@X@X@X@X} u.V.0.Q.Q.X   @X@Xj.@X@X@X@X@X@X@X@X@X@X@X@XE.E t.(.@X!.@X@X@X@X@X@X@X@X@X@X@X@X@X@X@X@XW.: 7.(.=.@X@X@X@X@X",
"@X@X@X@X@X@X@X@X@X@X(.k <.!.].+   @X@Xb.@X@X@X@X@X@X@X@X@X@X@X@X@X* oX(.@X!.@X@X@X@X@X@X@X@X@X@X@X@X@X@X@X@X@X= - !.#.@X@X@X@X@X",
"@X@X@X@X@X@X@X@X@X@XQ.Z U !.'.z +   @Xg.@X@X@X@X@X@X@X@X@X@X@X@X@X2  X!.@X_.@X@X@Xj.@X@X@X@X@X@X@X@X@X@X@X@X@X2.8 !.z @X@X@X@X@X",
"@X@X@X@X@X@X@X@X@X@Xr.3.k !.'.t.1   @X@X@X@X@X@X@X@X@X@X@X@X@X@X@Xe.g Q.@X_.@X@X@XJ.@X@X@X@X@X@X@X@X@X@X@X@X@Xd.O _.@X@X@X@X@X@X",
"@X@X@X@X@X@X@X@X@X@X@Xu.N.u.'.'.2   @X@X@X@X@X@X@X@X@X@X@X@X@X@X@X).B.t.@X(.@X@X@Xg.@X@X@X@X@X@X@X@X@X@X@X@X@X_.S ^.@X  @X@X@X@X",
"@X@X@X@X@X@X@X@X@X@X@X!.k 7.'._.l @X@X@X@X@X@X@X@X@X@X@X@X@X@X@X@X%.F 0.@X!.@X@X@X@X@X@X@X@X@X@X@X@X@X@X@X@X@XE.I Q.@X@X  @X@X@X",
"@X@X@X@X@X@X@X@X@X@X@X'.* J `.!.l @Xh.@X@X@X@X@X@X@X@X@X@X@X@X@X@X@XA >.@XQ.@X@X5 @X@X@X@X@X@X@X@X@X@X@X@X@X@X;.r OX@X    @X@X@X",
"@X@X@X@X@X@X@X@X@X@X@XE.4.M /.!.2 @XK.@X@X@X@X@X@X@X@X@X@X@X@X@X@X@X1 U =.Q.@X@X9 @X@X@X@X@X@X@X@X@X@X@X@X@X@X@X@  X@X    @X@X@X",
"@X@X@X@X@X@X@X@X@X@X@X@Xi.A.a.!.4 @Xx.@X@X@X@X@X@X@X@X@X@X@X@X@X@X@Xi.A.r.Q.@X@X0 @X@X@X@X@X@X@X@X@X@X@X@X@X@X@X:.y X       @X@X",
"@X@X@X@X@X@X@X@X@X@X@X@Xu.H.C ~.2 @X@X@X@X@X@X@X@X@X@X@X@X@X@X@X@X@X/.H.3.Q.@X@Xg.@X@X@X@X@X@X@X@X@X@X@X@X@X@X@X+XI.m       @X@X",
"@X@X@X@X@X@X@X@X@X@X@X@X$.Z B ^.l @X@X@X@X@X@X@X@X@X@X@X@X@X@X@X@X@X*.b [.y.@X@X0 @X@X@X@X@X@X@X@X@X@X@X@X@X@X@Xw.D W       @X@X",
"@X@X@X@X@X@X@X@X@X@X@X@X@X XF.).l 9 @X@X@X@X@X@X@X@X@X@X@X@X@X@X@X@X@X( I.&.@X@X9 @X@X@X@X@X@X@X@X@X@X@X@X@X@X@X+.V N.      @X  ",
"@X@X@X@X@X@X@X@X@X@X@X@X@X!.I.|.x 9 @X@X@X@X@X@X@X@X@X@X@X@X@X@X@X@X@XQ.I.U o @X@X@X@X@X@X@X@X@X@X@X@X@X@X@X@X@X@Xz M.      @X  ",
"@X@X@X@X@X@X@X@X@X@X@X@X@X^.b S z 0 @X@X@X@X@X@X@X@X@X@X@X@X@X@X@X@X@X(.{.i o h.@X@X@X@X@X@X@X@X@X@X@X@X@X@X@X@X@Xa.Y       @X@X",
"@X@X@X@X@X@X@X@X@X@X@X@X@X_.4.Y.5.c.@X@X@X@X@X@X@X@X@X@X@X@X@X@X@X@X@X_.7.H.: l.@X@X@X@X@X@X@X@X@X@X@X@X@X@X@X@X@X/.H &   . @X@X",
"@X@X@X@X@X@X@X@X@X@X@X@X@X@Xa.C.[.m.@X@X@X@X@X@X@X@X@X@X@X@X@X@X@X@X@X@X-.i B u @X@X@X@X@X@X@X@X@X@X@X@X@X@X@X@X@X=.&.R   X @X@X",
"@X@X@X@X@X@X@X@X@X@X@X@X@X@Xe.U P.@X@X@X@X@X@X@X@X@X@X@X@X@X@X@X@X@X@X@X+.` A.l.@X@X@X@X@X@X@X@X@X@X@X@X@X@X@X@X@X@X[ h   @X@X@X",
"@X@X@X@X@X@X@X@X@X@X@X@X@X@X$.<.Y.~ @X@X@X@X@X@X@X@X@X@X@X@X@X@X@X@X@X@X@Xy.n.k.@X@X@X@X@X@X@X@X@X@X@X@X@X@X@X@X@X@Xz I.X @X@X@X",
"@X@X@X@X@X@X@X@X@X@X@X@X@X@X@XK R @X@X@X@X@X@X@X@X@X@X@X@X@X@X@X@X@X@X@X@XW.T @X@X@X@X@X@X@X@X@X@X@X@X@X@X@X@X@X@X@X..u + @X@X@X",
"@X@X@X@X@X@X@X@X@X@X@X@X@X@X@X@X) @X@X@X@X@X@X@X@X@X@X@X@X@X@X@X@X@X@X@X@XE.U @X@X@X@X@X@X@X@X@X@X@X@X@X@X@X@X@X@X@X@Xc V.@X@X@X",
"@X@X@X@X@X@X@X@X@X@X@X@X@X@X@X@X@X@X@X@X@X@X@X@X@X@X@X@X@X@X@X@X@X@X@X@X@X@X@X@X@X@X@X@X@X@X@X@X@X@X@X@X@X@X@X@X@X@X@X9.Y @X@X@X",
"@X@X@X@X@X@X@X@X@X@X@X@X@X@X@X@X@X@X@X@X@X@X@X@X@X@X@X@X@X@X@X@X@X@X@X@X@X@X@X@X@X@X@X@X@X@X@X@X@X@X@X@X@X@X@X@X@X@X@X@X@X@X@X@X",
"@X@X@X@X@X@X@X@X@X@X@X@X@X@X@X@X@X@X@X@X@X@X@X@X@X@X@X@X@X@X@X@X@X@X@X@X@X@X@X@X@X@X@X@X@X@X@X@X@X@X@X@X@X@X@X@X@X@X@X@X@X@X@X@X"
};
